<svg width="242" height="68" viewBox="0 0 242 68" fill="none" xmlns="http://www.w3.org/2000/svg">
<path d="M83.8287 10.3476C83.8287 10.1556 83.6756 10 83.4866 10C83.2977 10 83.1445 10.1556 83.1445 10.3476V56.4199C83.1445 56.6118 83.2977 56.7675 83.4866 56.7675C83.6756 56.7675 83.8287 56.6118 83.8287 56.4199V10.3476Z" fill="#14108F"/>
<path d="M1.16169 0.381962H0.199259V0H24.9399V0.381962H24.0038C22.8796 0.436897 21.7822 0.748955 20.7933 1.29486C20.7633 1.31069 20.7344 1.32856 20.7068 1.34834C20.5196 1.44364 20.3398 1.55345 20.1692 1.67682C20.0677 1.74175 19.9699 1.81815 19.8759 1.89072C19.782 1.96329 19.7556 1.98239 19.6993 2.03587C18.406 3.14738 17.6579 4.83946 17.6316 6.97081C17.6316 7.58577 17.6316 8.20456 17.6316 8.81952C17.6316 9.68275 17.6316 10.5383 17.6316 11.4016C17.6316 14.2854 17.6316 17.1692 17.6316 20.053V23.1507H7.3233V13.1128C7.3233 12.7079 7.3233 12.3068 7.3233 11.9058C7.3233 10.4887 7.3233 9.07542 7.3233 7.65834V7.29547C7.3233 4.7898 6.71804 3.06333 5.4436 1.97856L5.32708 1.88689C5.23403 1.80918 5.13607 1.73773 5.03384 1.673C4.96993 1.62716 4.90225 1.58514 4.83458 1.54312C3.73008 0.839032 2.46438 0.43889 1.16169 0.381962ZM20.1241 65.4683C20.0555 65.4286 19.9889 65.3853 19.9248 65.3385C19.8217 65.275 19.7237 65.2035 19.6316 65.1246C19.5911 65.0962 19.5523 65.0656 19.5151 65.0329C18.2331 63.9519 17.6354 62.2255 17.6354 59.716V59.3569C17.6354 57.9399 17.6354 56.5266 17.6354 55.1095C17.6354 54.7046 17.6354 54.3036 17.6354 53.9025V41.0113L7.32706 30.9122V46.9546C7.32706 49.8423 7.32706 52.7223 7.32706 55.6099C7.32706 56.4706 7.32706 57.33 7.32706 58.1881C7.32706 58.8031 7.32709 59.4219 7.3083 60.0407C7.28198 62.1682 6.53386 63.8603 5.24063 64.9756C5.18423 65.0253 5.12405 65.0711 5.0639 65.1169C4.97018 65.1938 4.87232 65.2652 4.7707 65.3308C4.5985 65.4549 4.41754 65.566 4.22932 65.6631L4.14663 65.7128C3.15866 66.2616 2.06081 66.5751 0.936087 66.6295H0V67.0115H24.7406V66.6295H23.7669C22.4745 66.5673 21.2198 66.1674 20.1241 65.4683ZM63.0451 25.8168H49.0714L49.7293 26.7947C49.9609 27.139 50.063 27.5565 50.0167 27.9709C49.9705 28.3854 49.779 28.7691 49.4774 29.052L35.2594 42.7187L22.8196 29.3041C22.5308 29.0002 22.3612 28.5997 22.3425 28.1778C22.3238 27.7558 22.4574 27.3414 22.7181 27.0124L23.6316 25.8436L7.31582 25.8092L35.3158 52.5198" fill="url(#paint0_radial_450_22373)"/>
<path d="M65.5267 1.54312C65.459 1.58513 65.3876 1.62716 65.3237 1.673C65.2598 1.71883 65.1244 1.8105 65.0304 1.88689L64.9177 1.97856C63.632 3.06333 63.038 4.7898 63.038 7.29547V7.65834C63.038 9.07542 63.038 10.4887 63.038 11.9058V23.1507H52.7184V20.053C52.7184 17.1692 52.7184 14.2854 52.7184 11.4016C52.7184 10.5383 52.7184 9.68273 52.7184 8.8195C52.7184 8.20454 52.7184 7.58577 52.7184 6.97081C52.6921 4.83946 51.944 3.15117 50.6507 2.03584C50.5906 1.98237 50.5342 1.94035 50.4741 1.89069C50.4139 1.84104 50.2823 1.74173 50.1808 1.6768C50.0089 1.55346 49.8279 1.44365 49.6395 1.34831C49.6129 1.32693 49.5839 1.30896 49.553 1.29483C48.5654 0.748993 47.4692 0.436944 46.3462 0.381962H45.4102V0H70.1244V0.381962H69.147C67.8623 0.448007 66.6158 0.847798 65.5267 1.54312ZM46.5718 66.6371H45.5944V67.0191H70.3387V66.6371H69.4026C68.2778 66.5831 67.1799 66.2696 66.1921 65.7204L66.1057 65.6708C65.9191 65.5727 65.7395 65.4617 65.5681 65.3385C65.4665 65.2735 65.3688 65.201 65.271 65.1246L65.0981 64.9832C63.8011 63.8717 63.0568 62.1758 63.0305 60.0483C63.0305 59.4295 63.0304 58.8107 63.0116 58.1958C63.0116 57.3376 63.0116 56.4782 63.0116 55.6175C63.0116 52.7299 63.0116 49.8499 63.0116 46.9622V30.9198L52.7034 41.0189V53.9101C52.7034 54.2921 52.7034 54.7123 52.7034 55.1171C52.7034 56.5342 52.7034 57.9475 52.7034 59.3646V59.7236C52.6808 62.2331 52.0981 63.9596 50.8237 65.0405C50.7865 65.0732 50.7476 65.1038 50.7071 65.1322C50.6143 65.2102 50.5163 65.2817 50.4139 65.3461C50.3498 65.3929 50.2833 65.4362 50.2147 65.476C49.1204 66.1804 47.8656 66.5857 46.5718 66.6524V66.6371Z" fill="url(#paint1_radial_450_22373)"/>
<path d="M100.384 56.2585H99.3086V45.9609H100.384V56.2585ZM106.845 51.5061H100.242V50.5509H106.845V51.5061ZM106.746 45.9609H107.807V56.2585H106.746V45.9609Z" fill="#14108F"/>
<path d="M120.192 56.3417C119.464 56.3489 118.741 56.2176 118.061 55.9548C117.428 55.7042 116.851 55.3293 116.363 54.8515C115.885 54.3783 115.505 53.8133 115.245 53.1894C114.972 52.5303 114.836 51.8216 114.844 51.107C114.835 50.3923 114.972 49.6835 115.245 49.0245C115.505 48.4007 115.885 47.8356 116.363 47.3624C116.847 46.8817 117.423 46.5062 118.056 46.2591C118.737 45.993 119.462 45.8601 120.192 45.8675C120.916 45.8614 121.635 45.9943 122.31 46.2591C122.94 46.5064 123.516 46.8782 124.003 47.3529C124.483 47.8244 124.863 48.3899 125.121 49.015C125.393 49.6775 125.53 50.3893 125.522 51.107C125.53 51.8231 125.393 52.5334 125.121 53.1942C124.866 53.8206 124.485 54.3866 124.003 54.8563C123.516 55.3325 122.941 55.7059 122.31 55.9548C121.635 56.2181 120.916 56.3493 120.192 56.3417ZM120.192 55.3865C120.77 55.3921 121.343 55.2851 121.881 55.0712C122.388 54.8687 122.848 54.5631 123.234 54.1733C123.617 53.785 123.92 53.324 124.126 52.8169C124.344 52.2791 124.453 51.7025 124.446 51.1213C124.453 50.5385 124.344 49.9604 124.126 49.421C123.919 48.9153 123.617 48.4559 123.234 48.0693C122.848 47.6795 122.388 47.3739 121.881 47.1714C121.343 46.9575 120.77 46.8505 120.192 46.8562C119.61 46.8506 119.032 46.9575 118.49 47.1714C117.981 47.3727 117.518 47.6784 117.132 48.0693C116.749 48.458 116.444 48.9167 116.231 49.421C116.009 49.9595 115.899 50.538 115.905 51.1213C115.9 51.7014 116.011 52.2765 116.231 52.8121C116.442 53.3201 116.748 53.7823 117.132 54.1733C117.518 54.5642 117.981 54.8699 118.49 55.0712C119.033 55.2802 119.611 55.3823 120.192 55.3721V55.3865Z" fill="#14108F"/>
<path d="M135.395 56.3482C134.654 56.3507 133.919 56.2247 133.221 55.9756C132.623 55.7812 132.075 55.4549 131.617 55.0204L132.042 54.1797C132.46 54.5713 132.95 54.8749 133.485 55.0729C134.086 55.3101 134.726 55.4316 135.371 55.4311C135.902 55.4489 136.431 55.3663 136.932 55.1875C137.285 55.0632 137.594 54.8354 137.819 54.5332C138.005 54.2667 138.104 53.9476 138.102 53.6209C138.115 53.2691 137.992 52.926 137.758 52.6657C137.508 52.4054 137.203 52.2061 136.866 52.083C136.467 51.9345 136.059 51.8101 135.645 51.7104C135.202 51.6006 134.754 51.486 134.31 51.3666C133.885 51.255 133.473 51.0947 133.084 50.8889C132.723 50.6947 132.414 50.4144 132.183 50.0722C131.94 49.6746 131.822 49.2116 131.844 48.7444C131.84 48.2475 131.977 47.76 132.24 47.3402C132.54 46.8822 132.966 46.5235 133.466 46.3085C134.138 46.026 134.861 45.8925 135.588 45.9169C136.163 45.9171 136.734 45.9991 137.286 46.1605C137.803 46.3026 138.293 46.5284 138.739 46.8292L138.376 47.6984C137.952 47.407 137.483 47.1891 136.989 47.0536C136.529 46.9185 136.053 46.8478 135.574 46.8435C135.06 46.8276 134.547 46.9136 134.065 47.0966C133.713 47.2272 133.406 47.4597 133.183 47.7653C132.993 48.0463 132.894 48.3801 132.9 48.7205C132.887 49.0724 133.01 49.4154 133.244 49.6758C133.496 49.9354 133.805 50.1317 134.145 50.2489C134.547 50.395 134.956 50.5178 135.371 50.6167C135.815 50.7265 136.258 50.8412 136.701 50.9701C137.122 51.0866 137.53 51.2467 137.918 51.4477C138.279 51.6367 138.588 51.9122 138.819 52.2502C139.065 52.6397 139.185 53.097 139.163 53.5588C139.165 54.0531 139.023 54.5369 138.753 54.9487C138.446 55.4066 138.016 55.7649 137.512 55.9804C136.84 56.2513 136.118 56.3765 135.395 56.3482Z" fill="#14108F"/>
<path d="M146.168 56.2603V45.9628H149.974C150.735 45.9426 151.492 46.0858 152.195 46.3831C152.774 46.6338 153.266 47.0527 153.61 47.5867C153.959 48.1598 154.135 48.8241 154.115 49.4972C154.132 50.1594 153.956 50.812 153.61 51.3743C153.264 51.9087 152.773 52.3301 152.195 52.5874C151.493 52.8864 150.736 53.0313 149.974 53.0125H146.762L147.234 52.4967V56.2651L146.168 56.2603ZM147.243 52.5827L146.772 52.0525H149.955C150.78 52.1099 151.6 51.8734 152.271 51.3838C152.539 51.1486 152.75 50.8538 152.888 50.5224C153.025 50.1911 153.085 49.8321 153.063 49.4733C153.083 49.1148 153.022 48.7564 152.885 48.4253C152.748 48.0942 152.538 47.7993 152.271 47.5629C151.603 47.0658 150.782 46.8254 149.955 46.8846H146.772L147.243 46.3688V52.5827Z" fill="#14108F"/>
<path d="M161.102 56.2585V45.9609H162.167V56.2585H161.102Z" fill="#14108F"/>
<path d="M172.11 56.2572V46.9006H168.535V45.9453H176.76V46.9006H173.185V56.2572H172.11Z" fill="#14108F"/>
<path d="M180.984 56.2585L185.63 45.9609H186.691L191.341 56.2585H190.205L185.96 46.5914H186.394L182.149 56.2585H180.984ZM182.814 53.5074L183.135 52.6238H189.049L189.37 53.5074H182.814Z" fill="#14108F"/>
<path d="M197.672 56.2585V45.9609H198.747V55.3175H204.44V56.2728L197.672 56.2585Z" fill="#14108F"/>
<path d="M210.875 56.2585V45.9609H211.946V56.2585H210.875Z" fill="#14108F"/>
<path d="M221.883 56.2572V46.9006H218.289V45.9453H226.509V46.9006H222.939V56.2572H221.883Z" fill="#14108F"/>
<path d="M235.269 56.2602V52.4392L235.518 53.1175L231.203 45.9531H232.349L236.122 52.2339H235.514L239.287 45.9531H240.362L236.051 53.1175L236.297 52.4392V56.2602H235.269Z" fill="#14108F"/>
<path d="M105.37 40.157L96.9844 20.8516H99.9131L107.619 38.6669H105.931L113.694 20.8516H116.42L108.058 40.157H105.37Z" fill="#14108F"/>
<path d="M118.578 40.157V20.8516H121.299V40.157H118.578Z" fill="#14108F"/>
<path d="M126.75 40.157V20.8516H128.981L141.592 36.7086H140.422V20.8516H143.144V40.157H140.913L128.302 24.2952H129.471V40.157H126.75Z" fill="#14108F"/>
<path d="M145.703 40.157L154.334 20.8516H157.031L165.69 40.157H162.832L155.126 22.3943H156.216L148.49 40.157H145.703ZM149.377 35.3283L150.113 33.1217H160.842L161.635 35.3283H149.377Z" fill="#14108F"/>
<path d="M171.706 40.157V32.7635L172.334 34.4733L164.137 20.8516H167.051L173.956 32.3527H172.376L179.295 20.8516H181.973L173.805 34.4733L174.404 32.7635V40.157H171.706Z" fill="#14108F"/>
<path d="M180.422 40.157L189.048 20.8516H191.741L200.4 40.157H197.537L189.831 22.3943H190.934L183.228 40.157H180.422ZM184.101 35.3283L184.836 33.1217H195.566L196.353 35.3283H184.101Z" fill="#14108F"/>
<path d="M202.973 40.157V20.8516H205.699V40.157H202.973ZM205.368 35.4954L205.232 32.1282L216.046 20.8516H219.149L210.787 29.807L209.264 31.5169L205.368 35.4954ZM216.48 40.157L208.665 30.9437L210.49 28.9043L219.668 40.157H216.48Z" fill="#14108F"/>
<path d="M218.629 40.157L227.25 20.8516H229.948L238.607 40.157H235.739L228.033 22.3943H229.137L221.43 40.157H218.629ZM222.308 35.3283L223.043 33.1217H233.773L234.56 35.3283H222.308Z" fill="#14108F"/>
<path d="M237.207 21.5432C237.207 21.5432 239.438 20.5545 239.325 18.3192C239.212 16.0839 239.74 15.5681 239.74 15.5681C234.128 14.4505 233.543 19.7807 233.543 19.7807C233.997 18.7741 234.709 17.9096 235.606 17.2777C236.503 16.6458 237.552 16.2698 238.641 16.189C237.887 16.872 238.915 17.6219 238.306 19.3891C237.86 20.5167 237.066 21.4681 236.043 22.102C240.169 21.0894 240.287 23.5348 240.287 23.5348C238.866 24.2338 237.27 24.4802 235.708 24.2417C236.687 24.7699 237.792 25.0137 238.9 24.9463C240.007 24.8789 241.075 24.5028 241.985 23.8596C239.514 20.5402 237.207 21.5432 237.207 21.5432Z" fill="#14108F"/>
<path d="M235.349 19.0016C235.586 18.6297 235.875 18.295 236.208 18.0081C236.546 17.7158 236.93 17.4833 237.344 17.3203C236.892 17.4014 236.462 17.5771 236.08 17.8362C235.695 18.0952 235.355 18.4182 235.076 18.7914C234.79 19.1761 234.579 19.612 234.453 20.0762C234.338 20.5467 234.338 21.0385 234.453 21.5091C234.514 21.7497 234.606 21.9811 234.727 22.1968C234.852 22.4124 235.012 22.606 235.198 22.77C235.572 23.0779 236.014 23.2893 236.486 23.3861C236.938 23.4835 237.401 23.522 237.863 23.5007C238.317 23.4817 238.768 23.4242 239.212 23.3288C238.74 23.3288 238.311 23.3288 237.868 23.2858C237.646 23.2858 237.425 23.2428 237.208 23.2046C236.992 23.17 236.78 23.1205 236.571 23.0566C236.366 22.9948 236.167 22.9149 235.977 22.8177C235.794 22.7206 235.625 22.6002 235.472 22.4595C235.168 22.1789 234.958 21.8103 234.868 21.404C234.769 20.9929 234.769 20.5637 234.868 20.1526C234.963 19.7441 235.126 19.3549 235.349 19.0016Z" fill="#14108F"/>
<path d="M237.095 12.4183C237.095 12.4183 236.807 12.767 237.496 13.5837C237.688 13.803 237.794 14.0859 237.794 14.3789C237.794 14.672 237.688 14.9549 237.496 15.1742C237.496 15.1742 238.382 15.1455 238.095 13.4786C237.807 11.8117 238.854 11.1383 238.854 11.1383C238.854 11.1383 236.897 10.1066 234.822 13.6792C233.577 15.8649 233.04 18.3901 233.284 20.9009C233.313 19.2982 233.665 17.7184 234.321 16.2594C234.976 14.8003 235.92 13.493 237.095 12.4183Z" fill="#14108F"/>
<defs>
<radialGradient id="paint0_radial_450_22373" cx="0" cy="0" r="1" gradientUnits="userSpaceOnUse" gradientTransform="translate(-26.0038 18.7009) scale(148.786 151.169)">
<stop stop-color="#FF0094"/>
<stop offset="0.11" stop-color="#C809A4"/>
<stop offset="0.29" stop-color="#7617BC"/>
<stop offset="0.37" stop-color="#561CC6"/>
<stop offset="0.45" stop-color="#551CC3"/>
<stop offset="0.51" stop-color="#501CBB"/>
<stop offset="0.55" stop-color="#481CAC"/>
<stop offset="0.59" stop-color="#3C1B98"/>
<stop offset="0.62" stop-color="#2E1B7F"/>
</radialGradient>
<radialGradient id="paint1_radial_450_22373" cx="0" cy="0" r="1" gradientUnits="userSpaceOnUse" gradientTransform="translate(80.6207 18.7161) rotate(180) scale(87.218 88.6152)">
<stop stop-color="#FF0094"/>
<stop offset="0.11" stop-color="#C809A4"/>
<stop offset="0.29" stop-color="#7617BC"/>
<stop offset="0.37" stop-color="#561CC6"/>
<stop offset="0.45" stop-color="#551CC3"/>
<stop offset="0.51" stop-color="#501CBB"/>
<stop offset="0.55" stop-color="#481CAC"/>
<stop offset="0.59" stop-color="#3C1B98"/>
<stop offset="0.62" stop-color="#2E1B7F"/>
</radialGradient>
</defs>
</svg>
