<svg width="30" height="30" viewBox="0 0 30 30" fill="none" xmlns="http://www.w3.org/2000/svg">
<path d="M26.4115 24.5269C25.7402 22.5289 23.0645 21.2783 21.1568 20.4399C20.4095 20.1126 18.3405 19.5573 18.0918 18.6163C18.0028 18.2773 18.0148 17.9576 18.0878 17.6513C17.9728 17.6733 17.8562 17.6863 17.7355 17.6863H16.4925C15.5002 17.6863 14.6938 16.8789 14.6938 15.8873C14.6938 14.8963 15.5005 14.0906 16.4925 14.0906H17.7355C18.1462 14.0906 18.5355 14.2296 18.8495 14.4776C19.3098 14.4163 19.7538 14.3179 20.1678 14.1889C20.7115 13.0499 21.1355 11.6879 21.2305 10.5156C21.6362 5.4996 18.5612 2.56493 14.1522 3.07227C10.9465 3.44127 9.03149 5.8316 8.82449 8.90893C8.61516 12.0456 9.77816 14.3623 11.0135 16.0616C11.5545 16.8046 12.1228 17.2823 12.0355 18.1776C11.9342 19.2363 10.8022 19.5313 9.9925 19.8566C9.03316 20.2419 7.99983 20.8266 7.51183 21.0969C5.83083 22.0253 3.98583 23.1433 3.57116 24.6726C2.65283 28.0619 5.75416 29.0886 8.31449 29.5626C10.5118 29.9679 12.9895 29.9999 15.0275 29.9999C18.7138 29.9999 25.3425 29.8523 26.4115 27.0813C26.7155 26.2949 26.5852 25.0419 26.4115 24.5269Z" fill="white"/>
<path d="M18.5222 15.381C18.3535 15.124 18.0652 14.9533 17.7362 14.9533H16.4932C15.9745 14.9533 15.5562 15.3723 15.5562 15.8883C15.5562 16.4063 15.9745 16.826 16.4932 16.826H17.7362C18.0992 16.826 18.4072 16.619 18.5625 16.3197C20.2955 16.1833 21.8029 15.654 22.8609 14.8723C23.1039 15.029 23.3912 15.1207 23.7012 15.1207H23.7792C24.6432 15.1207 25.3419 14.4213 25.3419 13.5563V10.4337C25.3419 9.81167 24.9772 9.275 24.4512 9.02567C24.2219 4.01133 20.0709 0 15.0002 0C9.92954 0 5.77787 4.01133 5.54954 9.02567C5.02254 9.27533 4.6582 9.81167 4.6582 10.4337V13.5563C4.6582 14.4213 5.35754 15.1207 6.21954 15.1207H6.29854C7.1612 15.1207 7.86087 14.4213 7.86087 13.5563V10.4337C7.86087 9.82067 7.50654 9.292 6.99154 9.03633C7.21454 4.81133 10.7205 1.44367 15.0002 1.44367C19.2782 1.44367 22.7859 4.81133 23.0079 9.03633C22.4935 9.29233 22.1395 9.82067 22.1395 10.4337V13.5563C22.1395 13.7637 22.1799 13.9567 22.2509 14.137C21.3402 14.7887 20.0145 15.253 18.5222 15.381Z" fill="white"/>
</svg>
