<svg width="25" height="25" viewBox="0 0 25 25" fill="none" xmlns="http://www.w3.org/2000/svg">
<g clip-path="url(#clip0_450_22288)">
<path d="M25 12.5C25 18.7393 20.4287 23.9106 14.4531 24.8481V16.1133H17.3657L17.9199 12.5H14.4531V10.1553C14.4531 9.1665 14.9375 8.20312 16.4902 8.20312H18.0664V5.12695C18.0664 5.12695 16.6357 4.88281 15.2681 4.88281C12.4131 4.88281 10.5469 6.61328 10.5469 9.74609V12.5H7.37305V16.1133H10.5469V24.8481C4.57129 23.9106 0 18.7393 0 12.5C0 5.59668 5.59668 0 12.5 0C19.4033 0 25 5.59668 25 12.5Z" fill="#1877F2"/>
<path d="M17.3677 16.1133L17.9219 12.5H14.4551V10.1552C14.4551 9.1667 14.9394 8.20312 16.4921 8.20312H18.0684V5.12695C18.0684 5.12695 16.6379 4.88281 15.2703 4.88281C12.415 4.88281 10.5488 6.61328 10.5488 9.74609V12.5H7.375V16.1133H10.5488V24.8481C11.1853 24.9479 11.8375 25 12.502 25C13.1664 25 13.8187 24.9479 14.4551 24.8481V16.1133H17.3677Z" fill="white"/>
</g>
<defs>
<clipPath id="clip0_450_22288">
<rect width="25" height="25" fill="white"/>
</clipPath>
</defs>
</svg>
