<svg width="25" height="25" viewBox="0 0 25 25" fill="none" xmlns="http://www.w3.org/2000/svg">
<g clip-path="url(#clip0_450_22283)">
<path d="M12.5 25C19.4036 25 25 19.4036 25 12.5C25 5.59644 19.4036 0 12.5 0C5.59644 0 0 5.59644 0 12.5C0 19.4036 5.59644 25 12.5 25Z" fill="#007AB9"/>
<path d="M19.9685 13.5085V18.662H16.9806V13.8539C16.9806 12.6466 16.5492 11.8221 15.4674 11.8221C14.6419 11.8221 14.1514 12.3772 13.9348 12.9147C13.8562 13.1067 13.8359 13.3734 13.8359 13.6428V18.6617H10.8478C10.8478 18.6617 10.8879 10.5184 10.8478 9.67546H13.8361V10.9489C13.8301 10.9589 13.8216 10.9687 13.8163 10.9783H13.8361V10.9489C14.2332 10.3379 14.9413 9.46444 16.529 9.46444C18.4947 9.46444 19.9685 10.7488 19.9685 13.5085ZM7.72204 5.34375C6.69995 5.34375 6.03125 6.01467 6.03125 6.89617C6.03125 7.75894 6.68056 8.44925 7.68282 8.44925H7.70221C8.74436 8.44925 9.39233 7.75894 9.39233 6.89617C9.3725 6.01467 8.74436 5.34375 7.72204 5.34375ZM6.20884 18.662H9.1958V9.67546H6.20884V18.662Z" fill="#F1F2F2"/>
</g>
<defs>
<clipPath id="clip0_450_22283">
<rect width="25" height="25" fill="white"/>
</clipPath>
</defs>
</svg>
