<svg width="25" height="25" viewBox="0 0 25 25" fill="none" xmlns="http://www.w3.org/2000/svg">
<g clip-path="url(#clip0_542_1926)">
<path d="M24.75 12.5C24.75 19.2655 19.2655 24.75 12.5 24.75C5.73451 24.75 0.25 19.2655 0.25 12.5C0.25 5.73451 5.73451 0.25 12.5 0.25C19.2655 0.25 24.75 5.73451 24.75 12.5Z" fill="#F1F1F1" stroke="#E6E6E6" stroke-width="0.5"/>
<path d="M13.9077 11.9853L12.2472 14.4374L9.79178 16.8806C8.87859 15.72 7.88141 14.5957 7.27344 13.2358L8.59694 11.2084L10.6268 9.25C9.94841 10.0885 9.99906 11.3217 10.7788 12.1014C11.6131 12.9357 12.9653 12.9357 13.7996 12.1014C13.8372 12.0638 13.8735 12.025 13.9077 11.9853Z" fill="#ECB72B"/>
<path d="M13.9474 11.939C14.6317 11.1001 14.5832 9.86269 13.8009 9.08081C12.9666 8.24656 11.6144 8.24656 10.7802 9.08081C10.7451 9.11584 10.7117 9.15175 10.6797 9.18847L12.08 6.912L13.9799 5.26172C15.3988 5.71091 16.5725 6.71106 17.2501 8.011L15.8641 10.2459L13.9474 11.939Z" fill="#5085F7"/>
<path d="M10.6264 9.24794L7.27287 13.2338C6.94028 12.4906 6.72406 11.6771 6.70175 10.7486C6.70006 10.6958 6.69922 10.6426 6.69922 10.5894C6.69922 9.22322 7.18937 7.971 8.00378 7L10.6264 9.24794Z" fill="#DA2F2A"/>
<path d="M10.6266 9.24841L8.00391 7.00031C9.02941 5.77766 10.5683 5 12.2891 5C12.878 5 13.4456 5.09112 13.9786 5.26L10.6266 9.24841Z" fill="#4274EB"/>
<path d="M17.8782 10.5878C17.8782 9.65716 17.6508 8.77966 17.2485 8.00781L9.79102 16.8774C10.6383 17.9551 11.4125 19.0644 11.7342 20.4228C11.7445 20.4663 11.7556 20.5172 11.7675 20.5743C11.8841 21.1395 12.6934 21.1395 12.81 20.5743C12.8219 20.5172 12.833 20.4663 12.8433 20.4228C13.701 16.8012 17.7747 14.9504 17.8759 10.7472C17.8773 10.6942 17.8782 10.6411 17.8782 10.5878Z" fill="#60A850"/>
</g>
<defs>
<clipPath id="clip0_542_1926">
<rect width="25" height="25" fill="white"/>
</clipPath>
</defs>
</svg>
